<?xml version="1.0" encoding="UTF-8" standalone="no"?>
<!DOCTYPE svg PUBLIC "-//W3C//DTD SVG 1.1//EN"
 "http://www.w3.org/Graphics/SVG/1.1/DTD/svg11.dtd">
<!-- Generated by graphviz version 2.48.0 (20210717.1556)
 -->
<!-- Pages: 1 -->
<svg width="1997pt" height="175pt"
 viewBox="0.00 0.00 1996.60 175.00" xmlns="http://www.w3.org/2000/svg" xmlns:xlink="http://www.w3.org/1999/xlink">
<g id="graph0" class="graph" transform="scale(1 1) rotate(0) translate(4 171)">
<polygon fill="white" stroke="transparent" points="-4,4 -4,-171 1992.6,-171 1992.6,4 -4,4"/>
<!-- Zero -->
<g id="node1" class="node">
<title>Zero</title>
<path fill="none" stroke="black" d="M52.6,-60.5C52.6,-60.5 82.6,-60.5 82.6,-60.5 88.6,-60.5 94.6,-66.5 94.6,-72.5 94.6,-72.5 94.6,-84.5 94.6,-84.5 94.6,-90.5 88.6,-96.5 82.6,-96.5 82.6,-96.5 52.6,-96.5 52.6,-96.5 46.6,-96.5 40.6,-90.5 40.6,-84.5 40.6,-84.5 40.6,-72.5 40.6,-72.5 40.6,-66.5 46.6,-60.5 52.6,-60.5"/>
<text text-anchor="middle" x="67.6" y="-74.8" font-family="Times New Roman,serif" font-size="14.00">Zero</text>
</g>
<!-- GotInitiatorInvitation -->
<g id="node2" class="node">
<title>GotInitiatorInvitation</title>
<path fill="none" stroke="black" d="M281.6,-48C281.6,-48 429.6,-48 429.6,-48 435.6,-48 441.6,-54 441.6,-60 441.6,-60 441.6,-97 441.6,-97 441.6,-103 435.6,-109 429.6,-109 429.6,-109 281.6,-109 281.6,-109 275.6,-109 269.6,-103 269.6,-97 269.6,-97 269.6,-60 269.6,-60 269.6,-54 275.6,-48 281.6,-48"/>
<text text-anchor="middle" x="355.6" y="-93.8" font-family="Times New Roman,serif" font-size="14.00">GotInitiatorInvitation</text>
<polyline fill="none" stroke="black" points="269.6,-86 441.6,-86 "/>
<text text-anchor="middle" x="355.6" y="-70.8" font-family="Times New Roman,serif" font-size="14.00">entry / GotInitiatorInvitation</text>
<text text-anchor="middle" x="355.6" y="-55.8" font-family="Times New Roman,serif" font-size="14.00">exit / SendChallengerInvite</text>
</g>
<!-- Zero&#45;&gt;GotInitiatorInvitation -->
<g id="edge1" class="edge">
<title>Zero&#45;&gt;GotInitiatorInvitation</title>
<path fill="none" stroke="red" d="M94.74,-78.5C131.75,-78.5 201.36,-78.5 259.23,-78.5"/>
<polygon fill="red" stroke="red" points="259.51,-82 269.51,-78.5 259.51,-75 259.51,-82"/>
<text text-anchor="middle" x="182.1" y="-82.3" font-family="Times New Roman,serif" font-size="14.00">ReceiveInitiatorInvitation</text>
</g>
<!-- WaitingForChallengerConfirmation -->
<g id="node3" class="node">
<title>WaitingForChallengerConfirmation</title>
<path fill="none" stroke="black" d="M628.6,-48C628.6,-48 816.6,-48 816.6,-48 822.6,-48 828.6,-54 828.6,-60 828.6,-60 828.6,-97 828.6,-97 828.6,-103 822.6,-109 816.6,-109 816.6,-109 628.6,-109 628.6,-109 622.6,-109 616.6,-103 616.6,-97 616.6,-97 616.6,-60 616.6,-60 616.6,-54 622.6,-48 628.6,-48"/>
<text text-anchor="middle" x="722.6" y="-93.8" font-family="Times New Roman,serif" font-size="14.00">WaitingForChallengerConfirmation</text>
<polyline fill="none" stroke="black" points="616.6,-86 828.6,-86 "/>
<text text-anchor="middle" x="722.6" y="-70.8" font-family="Times New Roman,serif" font-size="14.00">entry / invite Timer</text>
<text text-anchor="middle" x="722.6" y="-55.8" font-family="Times New Roman,serif" font-size="14.00">exit / DisposeInvitationTimer</text>
</g>
<!-- GotInitiatorInvitation&#45;&gt;WaitingForChallengerConfirmation -->
<g id="edge2" class="edge">
<title>GotInitiatorInvitation&#45;&gt;WaitingForChallengerConfirmation</title>
<path fill="none" stroke="red" d="M441.72,-78.5C490.7,-78.5 552.91,-78.5 606.24,-78.5"/>
<polygon fill="red" stroke="red" points="606.43,-82 616.43,-78.5 606.43,-75 606.43,-82"/>
<text text-anchor="middle" x="529.1" y="-82.3" font-family="Times New Roman,serif" font-size="14.00">SendChallengerInvitation</text>
</g>
<!-- GameInviteTimedOut -->
<g id="node4" class="node">
<title>GameInviteTimedOut</title>
<path fill="none" stroke="black" d="M1053.6,-120.5C1053.6,-120.5 1205.6,-120.5 1205.6,-120.5 1211.6,-120.5 1217.6,-126.5 1217.6,-132.5 1217.6,-132.5 1217.6,-154.5 1217.6,-154.5 1217.6,-160.5 1211.6,-166.5 1205.6,-166.5 1205.6,-166.5 1053.6,-166.5 1053.6,-166.5 1047.6,-166.5 1041.6,-160.5 1041.6,-154.5 1041.6,-154.5 1041.6,-132.5 1041.6,-132.5 1041.6,-126.5 1047.6,-120.5 1053.6,-120.5"/>
<text text-anchor="middle" x="1129.6" y="-151.3" font-family="Times New Roman,serif" font-size="14.00">GameInviteTimedOut</text>
<polyline fill="none" stroke="black" points="1041.6,-143.5 1217.6,-143.5 "/>
<text text-anchor="middle" x="1129.6" y="-128.3" font-family="Times New Roman,serif" font-size="14.00">entry / GameInviteTimedOut</text>
</g>
<!-- WaitingForChallengerConfirmation&#45;&gt;GameInviteTimedOut -->
<g id="edge5" class="edge">
<title>WaitingForChallengerConfirmation&#45;&gt;GameInviteTimedOut</title>
<path fill="none" stroke="red" d="M828.69,-95.37C891.3,-105.41 970.21,-118.08 1031.38,-127.9"/>
<polygon fill="red" stroke="red" points="1030.99,-131.38 1041.42,-129.51 1032.1,-124.47 1030.99,-131.38"/>
<text text-anchor="middle" x="935.1" y="-130.3" font-family="Times New Roman,serif" font-size="14.00">InviteTimeOut</text>
</g>
<!-- GameStarted -->
<g id="node5" class="node">
<title>GameStarted</title>
<path fill="none" stroke="black" d="M1077.6,-55.5C1077.6,-55.5 1181.6,-55.5 1181.6,-55.5 1187.6,-55.5 1193.6,-61.5 1193.6,-67.5 1193.6,-67.5 1193.6,-89.5 1193.6,-89.5 1193.6,-95.5 1187.6,-101.5 1181.6,-101.5 1181.6,-101.5 1077.6,-101.5 1077.6,-101.5 1071.6,-101.5 1065.6,-95.5 1065.6,-89.5 1065.6,-89.5 1065.6,-67.5 1065.6,-67.5 1065.6,-61.5 1071.6,-55.5 1077.6,-55.5"/>
<text text-anchor="middle" x="1129.6" y="-86.3" font-family="Times New Roman,serif" font-size="14.00">GameStarted</text>
<polyline fill="none" stroke="black" points="1065.6,-78.5 1193.6,-78.5 "/>
<text text-anchor="middle" x="1129.6" y="-63.3" font-family="Times New Roman,serif" font-size="14.00">entry / GameStarted</text>
</g>
<!-- WaitingForChallengerConfirmation&#45;&gt;GameStarted -->
<g id="edge3" class="edge">
<title>WaitingForChallengerConfirmation&#45;&gt;GameStarted</title>
<path fill="none" stroke="red" d="M828.69,-78.5C899.73,-78.5 991.78,-78.5 1055.05,-78.5"/>
<polygon fill="red" stroke="red" points="1055.35,-82 1065.35,-78.5 1055.35,-75 1055.35,-82"/>
<text text-anchor="middle" x="935.1" y="-82.3" font-family="Times New Roman,serif" font-size="14.00">ReceiveChallengerConfirmation</text>
</g>
<!-- InvitationRejected -->
<g id="node10" class="node">
<title>InvitationRejected</title>
<path fill="none" stroke="black" d="M1083.1,-0.5C1083.1,-0.5 1176.1,-0.5 1176.1,-0.5 1182.1,-0.5 1188.1,-6.5 1188.1,-12.5 1188.1,-12.5 1188.1,-24.5 1188.1,-24.5 1188.1,-30.5 1182.1,-36.5 1176.1,-36.5 1176.1,-36.5 1083.1,-36.5 1083.1,-36.5 1077.1,-36.5 1071.1,-30.5 1071.1,-24.5 1071.1,-24.5 1071.1,-12.5 1071.1,-12.5 1071.1,-6.5 1077.1,-0.5 1083.1,-0.5"/>
<text text-anchor="middle" x="1129.6" y="-14.8" font-family="Times New Roman,serif" font-size="14.00">InvitationRejected</text>
</g>
<!-- WaitingForChallengerConfirmation&#45;&gt;InvitationRejected -->
<g id="edge4" class="edge">
<title>WaitingForChallengerConfirmation&#45;&gt;InvitationRejected</title>
<path fill="none" stroke="red" d="M828.6,-62.22C834.69,-61.29 840.72,-60.38 846.6,-59.5 919.87,-48.51 1003.92,-36.35 1061.06,-28.15"/>
<polygon fill="red" stroke="red" points="1061.66,-31.6 1071.06,-26.71 1060.66,-24.67 1061.66,-31.6"/>
<text text-anchor="middle" x="935.1" y="-63.3" font-family="Times New Roman,serif" font-size="14.00">ReceiveChallengerRejection</text>
</g>
<!-- WaitingForPicks -->
<g id="node6" class="node">
<title>WaitingForPicks</title>
<path fill="none" stroke="black" d="M1356.6,-55.5C1356.6,-55.5 1454.6,-55.5 1454.6,-55.5 1460.6,-55.5 1466.6,-61.5 1466.6,-67.5 1466.6,-67.5 1466.6,-89.5 1466.6,-89.5 1466.6,-95.5 1460.6,-101.5 1454.6,-101.5 1454.6,-101.5 1356.6,-101.5 1356.6,-101.5 1350.6,-101.5 1344.6,-95.5 1344.6,-89.5 1344.6,-89.5 1344.6,-67.5 1344.6,-67.5 1344.6,-61.5 1350.6,-55.5 1356.6,-55.5"/>
<text text-anchor="middle" x="1405.6" y="-86.3" font-family="Times New Roman,serif" font-size="14.00">WaitingForPicks</text>
<polyline fill="none" stroke="black" points="1344.6,-78.5 1466.6,-78.5 "/>
<text text-anchor="middle" x="1405.6" y="-63.3" font-family="Times New Roman,serif" font-size="14.00">entry / picks Timer</text>
</g>
<!-- GameStarted&#45;&gt;WaitingForPicks -->
<g id="edge6" class="edge">
<title>GameStarted&#45;&gt;WaitingForPicks</title>
<path fill="none" stroke="red" d="M1193.81,-78.5C1235.8,-78.5 1290.97,-78.5 1334.34,-78.5"/>
<polygon fill="red" stroke="red" points="1334.53,-82 1344.53,-78.5 1334.53,-75 1334.53,-82"/>
<text text-anchor="middle" x="1281.1" y="-82.3" font-family="Times New Roman,serif" font-size="14.00">MakeYourPicks</text>
</g>
<!-- WaitingForSecondPick -->
<g id="node7" class="node">
<title>WaitingForSecondPick</title>
<path fill="none" stroke="black" d="M1568.6,-96.5C1568.6,-96.5 1691.6,-96.5 1691.6,-96.5 1697.6,-96.5 1703.6,-102.5 1703.6,-108.5 1703.6,-108.5 1703.6,-120.5 1703.6,-120.5 1703.6,-126.5 1697.6,-132.5 1691.6,-132.5 1691.6,-132.5 1568.6,-132.5 1568.6,-132.5 1562.6,-132.5 1556.6,-126.5 1556.6,-120.5 1556.6,-120.5 1556.6,-108.5 1556.6,-108.5 1556.6,-102.5 1562.6,-96.5 1568.6,-96.5"/>
<text text-anchor="middle" x="1630.1" y="-110.8" font-family="Times New Roman,serif" font-size="14.00">WaitingForSecondPick</text>
</g>
<!-- WaitingForPicks&#45;&gt;WaitingForSecondPick -->
<g id="edge7" class="edge">
<title>WaitingForPicks&#45;&gt;WaitingForSecondPick</title>
<path fill="none" stroke="red" d="M1466.81,-88.24C1491.35,-92.21 1520.11,-96.87 1546.55,-101.14"/>
<polygon fill="red" stroke="red" points="1546.13,-104.62 1556.56,-102.76 1547.25,-97.71 1546.13,-104.62"/>
<text text-anchor="middle" x="1511.6" y="-104.3" font-family="Times New Roman,serif" font-size="14.00">HavePick</text>
</g>
<!-- GamePicksTimedOut -->
<g id="node9" class="node">
<title>GamePicksTimedOut</title>
<path fill="none" stroke="black" d="M1863.6,-42.5C1863.6,-42.5 1976.6,-42.5 1976.6,-42.5 1982.6,-42.5 1988.6,-48.5 1988.6,-54.5 1988.6,-54.5 1988.6,-76.5 1988.6,-76.5 1988.6,-82.5 1982.6,-88.5 1976.6,-88.5 1976.6,-88.5 1863.6,-88.5 1863.6,-88.5 1857.6,-88.5 1851.6,-82.5 1851.6,-76.5 1851.6,-76.5 1851.6,-54.5 1851.6,-54.5 1851.6,-48.5 1857.6,-42.5 1863.6,-42.5"/>
<text text-anchor="middle" x="1920.1" y="-73.3" font-family="Times New Roman,serif" font-size="14.00">GamePicksTimedOut</text>
<polyline fill="none" stroke="black" points="1851.6,-65.5 1988.6,-65.5 "/>
<text text-anchor="middle" x="1920.1" y="-50.3" font-family="Times New Roman,serif" font-size="14.00">entry / EndAsync</text>
</g>
<!-- WaitingForPicks&#45;&gt;GamePicksTimedOut -->
<g id="edge8" class="edge">
<title>WaitingForPicks&#45;&gt;GamePicksTimedOut</title>
<path fill="none" stroke="red" d="M1466.8,-75.28C1494.19,-73.92 1527.03,-72.43 1556.6,-71.5 1654.69,-68.4 1767.76,-66.85 1841.18,-66.11"/>
<polygon fill="red" stroke="red" points="1841.31,-69.61 1851.27,-66.01 1841.24,-62.61 1841.31,-69.61"/>
<text text-anchor="middle" x="1630.1" y="-75.3" font-family="Times New Roman,serif" font-size="14.00">MakePicksTimeOut</text>
</g>
<!-- GameEnded -->
<g id="node8" class="node">
<title>GameEnded</title>
<path fill="none" stroke="black" d="M1875.1,-110.5C1875.1,-110.5 1965.1,-110.5 1965.1,-110.5 1971.1,-110.5 1977.1,-116.5 1977.1,-122.5 1977.1,-122.5 1977.1,-144.5 1977.1,-144.5 1977.1,-150.5 1971.1,-156.5 1965.1,-156.5 1965.1,-156.5 1875.1,-156.5 1875.1,-156.5 1869.1,-156.5 1863.1,-150.5 1863.1,-144.5 1863.1,-144.5 1863.1,-122.5 1863.1,-122.5 1863.1,-116.5 1869.1,-110.5 1875.1,-110.5"/>
<text text-anchor="middle" x="1920.1" y="-141.3" font-family="Times New Roman,serif" font-size="14.00">GameEnded</text>
<polyline fill="none" stroke="black" points="1863.1,-133.5 1977.1,-133.5 "/>
<text text-anchor="middle" x="1920.1" y="-118.3" font-family="Times New Roman,serif" font-size="14.00">entry / EndAsync</text>
</g>
<!-- WaitingForSecondPick&#45;&gt;GameEnded -->
<g id="edge9" class="edge">
<title>WaitingForSecondPick&#45;&gt;GameEnded</title>
<path fill="none" stroke="red" d="M1703.77,-119.29C1749.53,-122.31 1808.15,-126.18 1852.67,-129.12"/>
<polygon fill="red" stroke="red" points="1852.59,-132.62 1862.8,-129.79 1853.05,-125.64 1852.59,-132.62"/>
<text text-anchor="middle" x="1777.6" y="-131.3" font-family="Times New Roman,serif" font-size="14.00">HavePick</text>
</g>
<!-- WaitingForSecondPick&#45;&gt;GamePicksTimedOut -->
<g id="edge10" class="edge">
<title>WaitingForSecondPick&#45;&gt;GamePicksTimedOut</title>
<path fill="none" stroke="red" d="M1703.77,-102.14C1745.74,-95 1798.51,-86.02 1841.3,-78.74"/>
<polygon fill="red" stroke="red" points="1842.12,-82.15 1851.39,-77.02 1840.95,-75.25 1842.12,-82.15"/>
<text text-anchor="middle" x="1777.6" y="-103.3" font-family="Times New Roman,serif" font-size="14.00">MakePicksTimeOut</text>
</g>
<!-- init -->
<g id="node11" class="node">
<title>init</title>
<ellipse fill="black" stroke="black" cx="1.8" cy="-78.5" rx="1.8" ry="1.8"/>
</g>
<!-- init&#45;&gt;Zero -->
<g id="edge11" class="edge">
<title>init&#45;&gt;Zero</title>
<path fill="none" stroke="red" d="M3.91,-78.5C7.37,-78.5 18.49,-78.5 30.42,-78.5"/>
<polygon fill="red" stroke="red" points="30.48,-82 40.48,-78.5 30.48,-75 30.48,-82"/>
</g>
</g>
</svg>
